<svg width="102" height="46" viewBox="0 0 102 46" fill="none" xmlns="http://www.w3.org/2000/svg">
<path d="M17.8553 17.046H19.2593V8.82H17.8553V7.866H23.1833C24.2633 7.866 25.1033 8.094 25.7033 8.55C26.3153 8.994 26.6213 9.648 26.6213 10.512C26.6213 12.048 25.7513 12.948 24.0113 13.212L26.3333 17.046H27.8273V18H25.3253L22.6073 13.356H21.3653V12.366H22.9493C23.7533 12.366 24.3233 12.192 24.6593 11.844C24.9953 11.484 25.1633 11.046 25.1633 10.53C25.1633 10.026 24.9953 9.618 24.6593 9.306C24.3353 8.982 23.8493 8.82 23.2013 8.82H20.7353V17.046H22.1393V18H17.8553V17.046ZM28.9999 17.046H30.4039V8.82H28.9999V7.866H37.8199V10.872H36.6859V8.82H31.8799V12.258H35.0299V11.07H35.7679V14.454H35.0299V13.248H31.8799V17.046H36.7759V14.94H37.9099V18H28.9999V17.046ZM39.2784 17.046H40.5744L43.5084 8.82H42.3744V7.866H47.3244V8.82H46.1544L49.1784 17.046H50.4024V18H46.2804V17.046H47.6304L46.6044 14.094H42.9324L41.9244 17.046H43.2744V18H39.2784V17.046ZM46.3164 13.14L44.8404 8.838H44.7324L43.2204 13.14H46.3164ZM51.6409 17.046H53.0449V8.82H51.6409V7.866H57.1489C58.2649 7.866 59.2129 8.1 59.9929 8.568C60.7849 9.036 61.3729 9.654 61.7569 10.422C62.1529 11.178 62.3509 11.982 62.3509 12.834C62.3509 13.842 62.1529 14.736 61.7569 15.516C61.3729 16.296 60.7909 16.908 60.0109 17.352C59.2429 17.784 58.2949 18 57.1669 18H51.6409V17.046ZM57.0229 17.046C58.3069 17.046 59.2609 16.662 59.8849 15.894C60.5209 15.126 60.8389 14.118 60.8389 12.87C60.8389 12.15 60.7009 11.484 60.4249 10.872C60.1489 10.26 59.7289 9.768 59.1649 9.396C58.6009 9.012 57.9049 8.82 57.0769 8.82H54.5209V17.046H57.0229ZM63.9276 17.046H65.3316V8.82H63.9276V7.866H72.7476V10.872H71.6136V8.82H66.8076V12.258H69.9576V11.07H70.6956V14.454H69.9576V13.248H66.8076V17.046H71.7036V14.94H72.8376V18H63.9276V17.046ZM74.4041 17.046H75.8081V8.82H74.4041V7.866H79.7321C80.8121 7.866 81.6521 8.094 82.2521 8.55C82.8641 8.994 83.1701 9.648 83.1701 10.512C83.1701 12.048 82.3001 12.948 80.5601 13.212L82.8821 17.046H84.3761V18H81.8741L79.1561 13.356H77.9141V12.366H79.4981C80.3021 12.366 80.8721 12.192 81.2081 11.844C81.5441 11.484 81.7121 11.046 81.7121 10.53C81.7121 10.026 81.5441 9.618 81.2081 9.306C80.8841 8.982 80.3981 8.82 79.7501 8.82H77.2841V17.046H78.6881V18H74.4041V17.046ZM21.1668 25.674C22.0255 25.814 22.6462 26.052 23.0288 26.388C23.4208 26.724 23.6168 27.2327 23.6168 27.914C23.6168 28.558 23.3928 29.09 22.9448 29.51C22.5062 29.93 21.8948 30.14 21.1108 30.14C20.5228 30.14 20.0095 30.0373 19.5708 29.832C19.1415 29.6173 18.8195 29.3187 18.6048 28.936V30H17.9328V27.34H18.5628C18.6002 28.0213 18.8288 28.5627 19.2488 28.964C19.6688 29.356 20.2802 29.552 21.0828 29.552C21.6522 29.552 22.0908 29.4167 22.3988 29.146C22.7162 28.866 22.8748 28.488 22.8748 28.012C22.8748 27.6667 22.8142 27.3913 22.6928 27.186C22.5808 26.9713 22.3942 26.8033 22.1328 26.682C21.8715 26.5607 21.5028 26.4627 21.0268 26.388L20.3408 26.29C19.5475 26.1687 18.9408 25.9307 18.5208 25.576C18.1102 25.2213 17.9048 24.7173 17.9048 24.064C17.9048 23.4107 18.1242 22.8973 18.5628 22.524C19.0015 22.1507 19.6082 21.964 20.3828 21.964C20.8775 21.964 21.3162 22.0527 21.6988 22.23C22.0908 22.398 22.3895 22.636 22.5948 22.944V22.118H23.2668V24.288H22.6368C22.5995 23.8027 22.3988 23.3967 22.0348 23.07C21.6708 22.734 21.1295 22.566 20.4108 22.566C19.8508 22.566 19.4168 22.6967 19.1088 22.958C18.8008 23.2193 18.6468 23.5693 18.6468 24.008C18.6468 24.484 18.7962 24.8387 19.0948 25.072C19.4028 25.3053 19.8648 25.4733 20.4808 25.576L21.1668 25.674ZM25.0747 29.454H26.2087V22.664H25.0747V22.118H28.1827V22.664H27.0347V29.454H28.1827V30H25.0747V29.454ZM29.6408 29.454H30.7188V22.664H29.6408V22.118H31.6148L36.6968 28.894V22.664H35.6048V22.118H38.3488V22.664H37.3548V30H36.5288L31.3768 23.056V29.454H32.4408V30H29.6408V29.454ZM47.2822 28.04C46.6195 29.4307 45.4015 30.1353 43.6282 30.154C42.8815 30.1447 42.1955 29.9767 41.5702 29.65C40.9448 29.3233 40.4455 28.852 40.0722 28.236C39.7082 27.6107 39.5262 26.878 39.5262 26.038C39.5262 25.2727 39.6942 24.582 40.0302 23.966C40.3755 23.35 40.8608 22.8647 41.4862 22.51C42.1115 22.1553 42.8302 21.978 43.6422 21.978C44.9955 21.978 45.9662 22.4633 46.5542 23.434V22.118H47.1842V24.414L46.6382 24.47C46.3115 23.8167 45.9148 23.3407 45.4482 23.042C44.9815 22.7433 44.3888 22.594 43.6702 22.594C42.9982 22.594 42.4102 22.748 41.9062 23.056C41.4022 23.364 41.0148 23.784 40.7442 24.316C40.4828 24.8387 40.3522 25.4127 40.3522 26.038C40.3522 26.7567 40.5015 27.382 40.8002 27.914C41.1082 28.446 41.5142 28.852 42.0182 29.132C42.5222 29.4027 43.0728 29.538 43.6702 29.538C44.3328 29.538 44.9302 29.398 45.4622 29.118C46.0035 28.8287 46.4142 28.3667 46.6942 27.732L47.2822 28.04ZM48.8898 29.454H50.0238V22.664H48.8898V22.118H55.5678V24.414H54.9098V22.664H50.8498V25.66H53.4958V24.638H53.9578V27.298H53.4958V26.234H50.8498V29.454H55.0218V27.662H55.6798V30H48.8898V29.454ZM66.2348 30H61.1808V29.468L63.6868 26.948C64.3495 26.2853 64.8068 25.758 65.0588 25.366C65.3108 24.974 65.4368 24.554 65.4368 24.106C65.4368 23.63 65.2921 23.2473 65.0028 22.958C64.7228 22.6687 64.3168 22.524 63.7848 22.524C63.2341 22.524 62.8001 22.6733 62.4828 22.972C62.1655 23.2707 62.0068 23.6907 62.0068 24.232C62.0068 24.456 62.0441 24.7407 62.1188 25.086H61.4328C61.3488 24.7873 61.3068 24.4933 61.3068 24.204C61.3068 23.532 61.5355 22.9953 61.9928 22.594C62.4595 22.1833 63.0848 21.978 63.8688 21.978C64.5875 21.978 65.1521 22.1647 65.5628 22.538C65.9828 22.9113 66.1928 23.4107 66.1928 24.036C66.1928 24.5493 66.0341 25.0347 65.7168 25.492C65.4088 25.9493 64.8815 26.5513 64.1348 27.298L62.0208 29.412H65.5488V27.956H66.2208L66.2348 30ZM70.7546 30.154C69.8119 30.154 69.0979 29.804 68.6126 29.104C68.1273 28.3947 67.8846 27.3773 67.8846 26.052C67.8846 24.7547 68.1273 23.7513 68.6126 23.042C69.1073 22.3327 69.8213 21.978 70.7546 21.978C71.6879 21.978 72.4019 22.3327 72.8966 23.042C73.3913 23.7513 73.6386 24.7547 73.6386 26.052C73.6386 27.3773 73.3913 28.3947 72.8966 29.104C72.4113 29.804 71.6973 30.154 70.7546 30.154ZM70.7266 29.608C71.4266 29.608 71.9586 29.3047 72.3226 28.698C72.6959 28.0913 72.8826 27.2093 72.8826 26.052C72.8826 24.904 72.7006 24.0313 72.3366 23.434C71.9726 22.8273 71.4453 22.524 70.7546 22.524C70.0639 22.524 69.5366 22.8273 69.1726 23.434C68.8086 24.0313 68.6266 24.904 68.6266 26.052C68.6266 27.2 68.8039 28.082 69.1586 28.698C69.5226 29.3047 70.0453 29.608 70.7266 29.608ZM80.2348 30H75.1808V29.468L77.6868 26.948C78.3495 26.2853 78.8068 25.758 79.0588 25.366C79.3108 24.974 79.4368 24.554 79.4368 24.106C79.4368 23.63 79.2921 23.2473 79.0028 22.958C78.7228 22.6687 78.3168 22.524 77.7848 22.524C77.2341 22.524 76.8001 22.6733 76.4828 22.972C76.1655 23.2707 76.0068 23.6907 76.0068 24.232C76.0068 24.456 76.0441 24.7407 76.1188 25.086H75.4328C75.3488 24.7873 75.3068 24.4933 75.3068 24.204C75.3068 23.532 75.5355 22.9953 75.9928 22.594C76.4595 22.1833 77.0848 21.978 77.8688 21.978C78.5875 21.978 79.1521 22.1647 79.5628 22.538C79.9828 22.9113 80.1928 23.4107 80.1928 24.036C80.1928 24.5493 80.0341 25.0347 79.7168 25.492C79.4088 25.9493 78.8815 26.5513 78.1348 27.298L76.0208 29.412H79.5488V27.956H80.2208L80.2348 30ZM81.7026 29.454H82.8506V22.818L81.6886 23.056L81.6746 22.496L83.5786 22.118V29.454H84.6986V30H81.7026V29.454Z" fill="white"/>
<path d="M18 20H84" stroke="white" stroke-linecap="round" stroke-dasharray="1.5 1.5"/>
</svg>
